<svg width="763" height="763" viewBox="0 0 763 763" fill="none" xmlns="http://www.w3.org/2000/svg">
<path d="M502.971 111.876C647.565 192.444 819.001 325.456 738.56 100.942C738.56 100.942 714.455 46.2437 665.437 17.1815C562.656 -43.7568 698.783 315.258 528.308 343.472C357.833 371.687 687.825 376.847 643.105 510.667C629.306 551.957 586.369 712.738 560.889 740.78C466.47 844.69 535.276 453.511 355.133 558.716C174.991 663.921 86.7412 308.26 47.7038 436.402C32.812 485.284 27.8678 525.725 45.5111 572.188C81.1576 666.061 178.438 472.033 210.126 374.262C263.519 209.518 129.691 -53.9247 19.2956 37.7148C-5.19786 58.0469 21.1561 309.275 129.46 265.932C237.763 222.588 358.377 31.3083 502.971 111.876Z" stroke="#FFC400"/>
<path d="M502.971 111.876C647.565 192.444 819.001 325.456 738.56 100.942C738.56 100.942 714.455 46.2437 665.437 17.1815C562.656 -43.7568 698.783 315.258 528.308 343.472C357.833 371.687 687.825 376.847 643.105 510.667C629.306 551.957 586.369 712.738 560.889 740.78C466.47 844.69 535.276 453.511 355.133 558.716C174.991 663.921 86.7412 308.26 47.7038 436.402C32.812 485.284 27.8678 525.725 45.5111 572.188C81.1576 666.061 178.438 472.033 210.126 374.262C263.519 209.518 129.691 -53.9247 19.2956 37.7148C-5.19786 58.0469 21.1561 309.275 129.46 265.932C237.763 222.588 358.377 31.3083 502.971 111.876Z" stroke="white" stroke-opacity="0.25"/>
</svg>
