<svg width="752" height="752" viewBox="0 0 752 752" fill="none" xmlns="http://www.w3.org/2000/svg">
<path d="M258.937 647.237C112.875 569.363 -60.9965 439.551 23.5912 662.535C23.5912 662.535 48.7057 716.778 98.2535 744.927C202.146 803.95 59.3893 447.519 229.312 416.151C399.235 384.782 69.2045 385.738 111.437 251.112C124.468 209.573 164.419 48.0244 189.375 19.5153C281.851 -86.1271 220.306 306.26 398.469 197.734C576.631 89.2094 671.456 443.173 708.112 314.331C722.095 265.181 726.289 224.655 707.788 178.528C670.408 85.3313 576.74 281.128 546.869 379.47C496.538 545.175 635.226 806.092 743.904 712.423C768.016 691.64 737.011 440.943 629.529 486.287C522.048 531.63 405 725.112 258.937 647.237Z" stroke="#FFC400"/>
<path d="M258.937 647.237C112.875 569.363 -60.9965 439.551 23.5912 662.535C23.5912 662.535 48.7057 716.778 98.2535 744.927C202.146 803.95 59.3893 447.519 229.312 416.151C399.235 384.782 69.2045 385.738 111.437 251.112C124.468 209.573 164.419 48.0244 189.375 19.5153C281.851 -86.1271 220.306 306.26 398.469 197.734C576.631 89.2094 671.456 443.173 708.112 314.331C722.095 265.181 726.289 224.655 707.788 178.528C670.408 85.3313 576.74 281.128 546.869 379.47C496.538 545.175 635.226 806.092 743.904 712.423C768.016 691.64 737.011 440.943 629.529 486.287C522.048 531.63 405 725.112 258.937 647.237Z" stroke="white" stroke-opacity="0.25"/>
</svg>
